<?xml version="1.0" encoding="UTF-8" standalone="no"?>
<!DOCTYPE svg PUBLIC "-//W3C//DTD SVG 1.1//EN"
 "http://www.w3.org/Graphics/SVG/1.1/DTD/svg11.dtd">
<!-- Generated by graphviz version 2.40.1 (20161225.0304)
 -->
<!-- Title: %3 Pages: 1 -->
<svg width="309pt" height="332pt"
 viewBox="0.00 0.00 308.64 332.00" xmlns="http://www.w3.org/2000/svg" xmlns:xlink="http://www.w3.org/1999/xlink">
<g id="graph0" class="graph" transform="scale(1 1) rotate(0) translate(4 328)">
<title>%3</title>
<polygon fill="#ffffff" stroke="transparent" points="-4,4 -4,-328 304.6377,-328 304.6377,4 -4,4"/>
<!-- 4998083864 -->
<g id="node1" class="node">
<title>4998083864</title>
<polygon fill="#d3d3d3" stroke="#000000" points="212.6172,-20 114.6836,-20 114.6836,0 212.6172,0 212.6172,-20"/>
<text text-anchor="middle" x="163.6504" y="-6.4" font-family="Times,serif" font-size="12.00" fill="#000000">MeanBackward1</text>
</g>
<!-- 4998085824 -->
<g id="node2" class="node">
<title>4998085824</title>
<polygon fill="#d3d3d3" stroke="#000000" points="215.6289,-76 111.6719,-76 111.6719,-56 215.6289,-56 215.6289,-76"/>
<text text-anchor="middle" x="163.6504" y="-62.4" font-family="Times,serif" font-size="12.00" fill="#000000">AddmmBackward</text>
</g>
<!-- 4998085824&#45;&gt;4998083864 -->
<g id="edge1" class="edge">
<title>4998085824&#45;&gt;4998083864</title>
<path fill="none" stroke="#000000" d="M163.6504,-55.9883C163.6504,-48.9098 163.6504,-39.1714 163.6504,-30.4779"/>
<polygon fill="#000000" stroke="#000000" points="167.1505,-30.3038 163.6504,-20.3039 160.1505,-30.3039 167.1505,-30.3038"/>
</g>
<!-- 4998085320 -->
<g id="node3" class="node">
<title>4998085320</title>
<polygon fill="#d3d3d3" stroke="#000000" points="101.4516,-132 -.1508,-132 -.1508,-112 101.4516,-112 101.4516,-132"/>
<text text-anchor="middle" x="50.6504" y="-118.4" font-family="Times,serif" font-size="12.00" fill="#000000">ExpandBackward</text>
</g>
<!-- 4998085320&#45;&gt;4998085824 -->
<g id="edge2" class="edge">
<title>4998085320&#45;&gt;4998085824</title>
<path fill="none" stroke="#000000" d="M70.8525,-111.9883C88.499,-103.2431 114.3378,-90.4381 134.2716,-80.5594"/>
<polygon fill="#000000" stroke="#000000" points="135.8362,-83.6903 143.2422,-76.1138 132.7279,-77.4182 135.8362,-83.6903"/>
</g>
<!-- 4998030112 -->
<g id="node4" class="node">
<title>4998030112</title>
<polygon fill="#add8e6" stroke="#000000" points="78.3077,-200 22.9931,-200 22.9931,-168 78.3077,-168 78.3077,-200"/>
<text text-anchor="middle" x="50.6504" y="-186.4" font-family="Times,serif" font-size="12.00" fill="#000000">W1.bias</text>
<text text-anchor="middle" x="50.6504" y="-174.4" font-family="Times,serif" font-size="12.00" fill="#000000"> (1)</text>
</g>
<!-- 4998030112&#45;&gt;4998085320 -->
<g id="edge3" class="edge">
<title>4998030112&#45;&gt;4998085320</title>
<path fill="none" stroke="#000000" d="M50.6504,-167.7102C50.6504,-160.0144 50.6504,-150.744 50.6504,-142.5691"/>
<polygon fill="#000000" stroke="#000000" points="54.1505,-142.3512 50.6504,-132.3512 47.1505,-142.3513 54.1505,-142.3512"/>
</g>
<!-- 4998030896 -->
<g id="node5" class="node">
<title>4998030896</title>
<polygon fill="#d3d3d3" stroke="#000000" points="208.1145,-132 119.1863,-132 119.1863,-112 208.1145,-112 208.1145,-132"/>
<text text-anchor="middle" x="163.6504" y="-118.4" font-family="Times,serif" font-size="12.00" fill="#000000">TanhBackward</text>
</g>
<!-- 4998030896&#45;&gt;4998085824 -->
<g id="edge4" class="edge">
<title>4998030896&#45;&gt;4998085824</title>
<path fill="none" stroke="#000000" d="M163.6504,-111.9883C163.6504,-104.9098 163.6504,-95.1714 163.6504,-86.4779"/>
<polygon fill="#000000" stroke="#000000" points="167.1505,-86.3038 163.6504,-76.3039 160.1505,-86.3039 167.1505,-86.3038"/>
</g>
<!-- 4998029776 -->
<g id="node6" class="node">
<title>4998029776</title>
<polygon fill="#d3d3d3" stroke="#000000" points="213.6289,-194 109.6719,-194 109.6719,-174 213.6289,-174 213.6289,-194"/>
<text text-anchor="middle" x="161.6504" y="-180.4" font-family="Times,serif" font-size="12.00" fill="#000000">AddmmBackward</text>
</g>
<!-- 4998029776&#45;&gt;4998030896 -->
<g id="edge5" class="edge">
<title>4998029776&#45;&gt;4998030896</title>
<path fill="none" stroke="#000000" d="M161.9806,-173.762C162.2573,-165.185 162.6606,-152.6836 163.0015,-142.1154"/>
<polygon fill="#000000" stroke="#000000" points="166.5019,-142.1552 163.3263,-132.0475 159.5056,-141.9295 166.5019,-142.1552"/>
</g>
<!-- 4998030616 -->
<g id="node7" class="node">
<title>4998030616</title>
<polygon fill="#d3d3d3" stroke="#000000" points="159.4516,-256 57.8492,-256 57.8492,-236 159.4516,-236 159.4516,-256"/>
<text text-anchor="middle" x="108.6504" y="-242.4" font-family="Times,serif" font-size="12.00" fill="#000000">ExpandBackward</text>
</g>
<!-- 4998030616&#45;&gt;4998029776 -->
<g id="edge6" class="edge">
<title>4998030616&#45;&gt;4998029776</title>
<path fill="none" stroke="#000000" d="M117.4023,-235.762C125.2745,-226.553 137.0139,-212.82 146.4231,-201.8131"/>
<polygon fill="#000000" stroke="#000000" points="149.224,-203.923 153.0614,-194.0475 143.9031,-199.3745 149.224,-203.923"/>
</g>
<!-- 4998030280 -->
<g id="node8" class="node">
<title>4998030280</title>
<polygon fill="#add8e6" stroke="#000000" points="136.3077,-324 80.9931,-324 80.9931,-292 136.3077,-292 136.3077,-324"/>
<text text-anchor="middle" x="108.6504" y="-310.4" font-family="Times,serif" font-size="12.00" fill="#000000">W0.bias</text>
<text text-anchor="middle" x="108.6504" y="-298.4" font-family="Times,serif" font-size="12.00" fill="#000000"> (16)</text>
</g>
<!-- 4998030280&#45;&gt;4998030616 -->
<g id="edge7" class="edge">
<title>4998030280&#45;&gt;4998030616</title>
<path fill="none" stroke="#000000" d="M108.6504,-291.7102C108.6504,-284.0144 108.6504,-274.744 108.6504,-266.5691"/>
<polygon fill="#000000" stroke="#000000" points="112.1505,-266.3512 108.6504,-256.3512 105.1505,-266.3513 112.1505,-266.3512"/>
</g>
<!-- 4998030392 -->
<g id="node9" class="node">
<title>4998030392</title>
<polygon fill="#d3d3d3" stroke="#000000" points="249.625,-256 177.6758,-256 177.6758,-236 249.625,-236 249.625,-256"/>
<text text-anchor="middle" x="213.6504" y="-242.4" font-family="Times,serif" font-size="12.00" fill="#000000">TBackward</text>
</g>
<!-- 4998030392&#45;&gt;4998029776 -->
<g id="edge8" class="edge">
<title>4998030392&#45;&gt;4998029776</title>
<path fill="none" stroke="#000000" d="M205.0636,-235.762C197.34,-226.553 185.822,-212.82 176.5904,-201.8131"/>
<polygon fill="#000000" stroke="#000000" points="179.1852,-199.4603 170.0774,-194.0475 173.8218,-203.9586 179.1852,-199.4603"/>
</g>
<!-- 4998030224 -->
<g id="node10" class="node">
<title>4998030224</title>
<polygon fill="#add8e6" stroke="#000000" points="248.1367,-324 179.1641,-324 179.1641,-292 248.1367,-292 248.1367,-324"/>
<text text-anchor="middle" x="213.6504" y="-310.4" font-family="Times,serif" font-size="12.00" fill="#000000">W0.weight</text>
<text text-anchor="middle" x="213.6504" y="-298.4" font-family="Times,serif" font-size="12.00" fill="#000000"> (16, 8)</text>
</g>
<!-- 4998030224&#45;&gt;4998030392 -->
<g id="edge9" class="edge">
<title>4998030224&#45;&gt;4998030392</title>
<path fill="none" stroke="#000000" d="M213.6504,-291.7102C213.6504,-284.0144 213.6504,-274.744 213.6504,-266.5691"/>
<polygon fill="#000000" stroke="#000000" points="217.1505,-266.3512 213.6504,-256.3512 210.1505,-266.3513 217.1505,-266.3512"/>
</g>
<!-- 4998030728 -->
<g id="node11" class="node">
<title>4998030728</title>
<polygon fill="#d3d3d3" stroke="#000000" points="300.625,-132 228.6758,-132 228.6758,-112 300.625,-112 300.625,-132"/>
<text text-anchor="middle" x="264.6504" y="-118.4" font-family="Times,serif" font-size="12.00" fill="#000000">TBackward</text>
</g>
<!-- 4998030728&#45;&gt;4998085824 -->
<g id="edge10" class="edge">
<title>4998030728&#45;&gt;4998085824</title>
<path fill="none" stroke="#000000" d="M246.5936,-111.9883C231.0352,-103.3619 208.3519,-90.785 190.6378,-80.9633"/>
<polygon fill="#000000" stroke="#000000" points="192.3342,-77.902 181.8914,-76.1138 188.9398,-84.0239 192.3342,-77.902"/>
</g>
<!-- 4998031008 -->
<g id="node12" class="node">
<title>4998031008</title>
<polygon fill="#add8e6" stroke="#000000" points="300.1367,-200 231.1641,-200 231.1641,-168 300.1367,-168 300.1367,-200"/>
<text text-anchor="middle" x="265.6504" y="-186.4" font-family="Times,serif" font-size="12.00" fill="#000000">W1.weight</text>
<text text-anchor="middle" x="265.6504" y="-174.4" font-family="Times,serif" font-size="12.00" fill="#000000"> (1, 16)</text>
</g>
<!-- 4998031008&#45;&gt;4998030728 -->
<g id="edge11" class="edge">
<title>4998031008&#45;&gt;4998030728</title>
<path fill="none" stroke="#000000" d="M265.3877,-167.7102C265.2635,-160.0144 265.114,-150.744 264.9821,-142.5691"/>
<polygon fill="#000000" stroke="#000000" points="268.4783,-142.2934 264.8173,-132.3512 261.4792,-142.4064 268.4783,-142.2934"/>
</g>
</g>
</svg>