<?xml version="1.0" encoding="UTF-8" standalone="no"?>
<!DOCTYPE svg PUBLIC "-//W3C//DTD SVG 1.1//EN"
 "http://www.w3.org/Graphics/SVG/1.1/DTD/svg11.dtd">
<!-- Generated by graphviz version 2.40.1 (20161225.0304)
 -->
<!-- Title: %3 Pages: 1 -->
<svg width="575pt" height="864pt"
 viewBox="0.00 0.00 575.44 864.00" xmlns="http://www.w3.org/2000/svg" xmlns:xlink="http://www.w3.org/1999/xlink">
<g id="graph0" class="graph" transform="scale(.6646 .6646) rotate(0) translate(4 1296)">
<title>%3</title>
<polygon fill="#ffffff" stroke="transparent" points="-4,4 -4,-1296 861.8262,-1296 861.8262,4 -4,4"/>
<!-- 5661881176 -->
<g id="node1" class="node">
<title>5661881176</title>
<polygon fill="#d3d3d3" stroke="#000000" points="731.4746,-20 627.5176,-20 627.5176,0 731.4746,0 731.4746,-20"/>
<text text-anchor="middle" x="679.4961" y="-6.4" font-family="Times,serif" font-size="12.00" fill="#000000">AddmmBackward</text>
</g>
<!-- 5661881120 -->
<g id="node2" class="node">
<title>5661881120</title>
<polygon fill="#d3d3d3" stroke="#000000" points="602.2973,-76 500.6949,-76 500.6949,-56 602.2973,-56 602.2973,-76"/>
<text text-anchor="middle" x="551.4961" y="-62.4" font-family="Times,serif" font-size="12.00" fill="#000000">ExpandBackward</text>
</g>
<!-- 5661881120&#45;&gt;5661881176 -->
<g id="edge1" class="edge">
<title>5661881120&#45;&gt;5661881176</title>
<path fill="none" stroke="#000000" d="M574.3799,-55.9883C594.6403,-47.1244 624.4339,-34.0897 647.1333,-24.1587"/>
<polygon fill="#000000" stroke="#000000" points="648.6201,-27.3286 656.3788,-20.1138 645.8143,-20.9155 648.6201,-27.3286"/>
</g>
<!-- 5661880616 -->
<g id="node3" class="node">
<title>5661880616</title>
<polygon fill="#add8e6" stroke="#000000" points="596.3268,-144 506.6654,-144 506.6654,-112 596.3268,-112 596.3268,-144"/>
<text text-anchor="middle" x="551.4961" y="-130.4" font-family="Times,serif" font-size="12.00" fill="#000000">classifier.6.bias</text>
<text text-anchor="middle" x="551.4961" y="-118.4" font-family="Times,serif" font-size="12.00" fill="#000000"> (1000)</text>
</g>
<!-- 5661880616&#45;&gt;5661881120 -->
<g id="edge2" class="edge">
<title>5661880616&#45;&gt;5661881120</title>
<path fill="none" stroke="#000000" d="M551.4961,-111.7102C551.4961,-104.0144 551.4961,-94.744 551.4961,-86.5691"/>
<polygon fill="#000000" stroke="#000000" points="554.9962,-86.3512 551.4961,-76.3512 547.9962,-86.3513 554.9962,-86.3512"/>
</g>
<!-- 5661881008 -->
<g id="node4" class="node">
<title>5661881008</title>
<polygon fill="#d3d3d3" stroke="#000000" points="739.2973,-76 619.6949,-76 619.6949,-56 739.2973,-56 739.2973,-76"/>
<text text-anchor="middle" x="679.4961" y="-62.4" font-family="Times,serif" font-size="12.00" fill="#000000">ThresholdBackward1</text>
</g>
<!-- 5661881008&#45;&gt;5661881176 -->
<g id="edge3" class="edge">
<title>5661881008&#45;&gt;5661881176</title>
<path fill="none" stroke="#000000" d="M679.4961,-55.9883C679.4961,-48.9098 679.4961,-39.1714 679.4961,-30.4779"/>
<polygon fill="#000000" stroke="#000000" points="682.9962,-30.3038 679.4961,-20.3039 675.9962,-30.3039 682.9962,-30.3038"/>
</g>
<!-- 5661882632 -->
<g id="node5" class="node">
<title>5661882632</title>
<polygon fill="#d3d3d3" stroke="#000000" points="729.4746,-138 625.5176,-138 625.5176,-118 729.4746,-118 729.4746,-138"/>
<text text-anchor="middle" x="677.4961" y="-124.4" font-family="Times,serif" font-size="12.00" fill="#000000">AddmmBackward</text>
</g>
<!-- 5661882632&#45;&gt;5661881008 -->
<g id="edge4" class="edge">
<title>5661882632&#45;&gt;5661881008</title>
<path fill="none" stroke="#000000" d="M677.8264,-117.762C678.103,-109.185 678.5063,-96.6836 678.8472,-86.1154"/>
<polygon fill="#000000" stroke="#000000" points="682.3477,-86.1552 679.172,-76.0475 675.3513,-85.9295 682.3477,-86.1552"/>
</g>
<!-- 5661880448 -->
<g id="node6" class="node">
<title>5661880448</title>
<polygon fill="#d3d3d3" stroke="#000000" points="607.2973,-200 505.6949,-200 505.6949,-180 607.2973,-180 607.2973,-200"/>
<text text-anchor="middle" x="556.4961" y="-186.4" font-family="Times,serif" font-size="12.00" fill="#000000">ExpandBackward</text>
</g>
<!-- 5661880448&#45;&gt;5661882632 -->
<g id="edge5" class="edge">
<title>5661880448&#45;&gt;5661882632</title>
<path fill="none" stroke="#000000" d="M576.2061,-179.9006C595.8942,-169.8125 626.3698,-154.1969 648.7525,-142.7281"/>
<polygon fill="#000000" stroke="#000000" points="650.4909,-145.7702 657.7945,-138.095 647.2987,-139.5404 650.4909,-145.7702"/>
</g>
<!-- 5661881792 -->
<g id="node7" class="node">
<title>5661881792</title>
<polygon fill="#add8e6" stroke="#000000" points="600.3268,-268 510.6654,-268 510.6654,-236 600.3268,-236 600.3268,-268"/>
<text text-anchor="middle" x="555.4961" y="-254.4" font-family="Times,serif" font-size="12.00" fill="#000000">classifier.4.bias</text>
<text text-anchor="middle" x="555.4961" y="-242.4" font-family="Times,serif" font-size="12.00" fill="#000000"> (4096)</text>
</g>
<!-- 5661881792&#45;&gt;5661880448 -->
<g id="edge6" class="edge">
<title>5661881792&#45;&gt;5661880448</title>
<path fill="none" stroke="#000000" d="M555.7588,-235.7102C555.883,-228.0144 556.0325,-218.744 556.1643,-210.5691"/>
<polygon fill="#000000" stroke="#000000" points="559.6673,-210.4064 556.3291,-200.3512 552.6682,-210.2934 559.6673,-210.4064"/>
</g>
<!-- 4686645568 -->
<g id="node8" class="node">
<title>4686645568</title>
<polygon fill="#d3d3d3" stroke="#000000" points="729.6373,-200 625.3549,-200 625.3549,-180 729.6373,-180 729.6373,-200"/>
<text text-anchor="middle" x="677.4961" y="-186.4" font-family="Times,serif" font-size="12.00" fill="#000000">DropoutBackward</text>
</g>
<!-- 4686645568&#45;&gt;5661882632 -->
<g id="edge7" class="edge">
<title>4686645568&#45;&gt;5661882632</title>
<path fill="none" stroke="#000000" d="M677.4961,-179.762C677.4961,-171.185 677.4961,-158.6836 677.4961,-148.1154"/>
<polygon fill="#000000" stroke="#000000" points="680.9962,-148.0475 677.4961,-138.0475 673.9962,-148.0476 680.9962,-148.0475"/>
</g>
<!-- 5661882184 -->
<g id="node9" class="node">
<title>5661882184</title>
<polygon fill="#d3d3d3" stroke="#000000" points="737.2973,-262 617.6949,-262 617.6949,-242 737.2973,-242 737.2973,-262"/>
<text text-anchor="middle" x="677.4961" y="-248.4" font-family="Times,serif" font-size="12.00" fill="#000000">ThresholdBackward1</text>
</g>
<!-- 5661882184&#45;&gt;4686645568 -->
<g id="edge8" class="edge">
<title>5661882184&#45;&gt;4686645568</title>
<path fill="none" stroke="#000000" d="M677.4961,-241.762C677.4961,-233.185 677.4961,-220.6836 677.4961,-210.1154"/>
<polygon fill="#000000" stroke="#000000" points="680.9962,-210.0475 677.4961,-200.0475 673.9962,-210.0476 680.9962,-210.0475"/>
</g>
<!-- 5661880728 -->
<g id="node10" class="node">
<title>5661880728</title>
<polygon fill="#d3d3d3" stroke="#000000" points="729.4746,-324 625.5176,-324 625.5176,-304 729.4746,-304 729.4746,-324"/>
<text text-anchor="middle" x="677.4961" y="-310.4" font-family="Times,serif" font-size="12.00" fill="#000000">AddmmBackward</text>
</g>
<!-- 5661880728&#45;&gt;5661882184 -->
<g id="edge9" class="edge">
<title>5661880728&#45;&gt;5661882184</title>
<path fill="none" stroke="#000000" d="M677.4961,-303.762C677.4961,-295.185 677.4961,-282.6836 677.4961,-272.1154"/>
<polygon fill="#000000" stroke="#000000" points="680.9962,-272.0475 677.4961,-262.0475 673.9962,-272.0476 680.9962,-272.0475"/>
</g>
<!-- 4686835160 -->
<g id="node11" class="node">
<title>4686835160</title>
<polygon fill="#d3d3d3" stroke="#000000" points="607.2973,-380 505.6949,-380 505.6949,-360 607.2973,-360 607.2973,-380"/>
<text text-anchor="middle" x="556.4961" y="-366.4" font-family="Times,serif" font-size="12.00" fill="#000000">ExpandBackward</text>
</g>
<!-- 4686835160&#45;&gt;5661880728 -->
<g id="edge10" class="edge">
<title>4686835160&#45;&gt;5661880728</title>
<path fill="none" stroke="#000000" d="M578.1285,-359.9883C597.1098,-351.2036 624.9429,-338.3222 646.3268,-328.4255"/>
<polygon fill="#000000" stroke="#000000" points="648.0379,-331.4903 655.643,-324.1138 645.0978,-325.1376 648.0379,-331.4903"/>
</g>
<!-- 4686832416 -->
<g id="node12" class="node">
<title>4686832416</title>
<polygon fill="#add8e6" stroke="#000000" points="601.3268,-448 511.6654,-448 511.6654,-416 601.3268,-416 601.3268,-448"/>
<text text-anchor="middle" x="556.4961" y="-434.4" font-family="Times,serif" font-size="12.00" fill="#000000">classifier.1.bias</text>
<text text-anchor="middle" x="556.4961" y="-422.4" font-family="Times,serif" font-size="12.00" fill="#000000"> (4096)</text>
</g>
<!-- 4686832416&#45;&gt;4686835160 -->
<g id="edge11" class="edge">
<title>4686832416&#45;&gt;4686835160</title>
<path fill="none" stroke="#000000" d="M556.4961,-415.7102C556.4961,-408.0144 556.4961,-398.744 556.4961,-390.5691"/>
<polygon fill="#000000" stroke="#000000" points="559.9962,-390.3512 556.4961,-380.3512 552.9962,-390.3513 559.9962,-390.3512"/>
</g>
<!-- 4686645240 -->
<g id="node13" class="node">
<title>4686645240</title>
<polygon fill="#d3d3d3" stroke="#000000" points="729.6373,-380 625.3549,-380 625.3549,-360 729.6373,-360 729.6373,-380"/>
<text text-anchor="middle" x="677.4961" y="-366.4" font-family="Times,serif" font-size="12.00" fill="#000000">DropoutBackward</text>
</g>
<!-- 4686645240&#45;&gt;5661880728 -->
<g id="edge12" class="edge">
<title>4686645240&#45;&gt;5661880728</title>
<path fill="none" stroke="#000000" d="M677.4961,-359.9883C677.4961,-352.9098 677.4961,-343.1714 677.4961,-334.4779"/>
<polygon fill="#000000" stroke="#000000" points="680.9962,-334.3038 677.4961,-324.3039 673.9962,-334.3039 680.9962,-334.3038"/>
</g>
<!-- 4686832808 -->
<g id="node14" class="node">
<title>4686832808</title>
<polygon fill="#d3d3d3" stroke="#000000" points="720.418,-442 630.5742,-442 630.5742,-422 720.418,-422 720.418,-442"/>
<text text-anchor="middle" x="675.4961" y="-428.4" font-family="Times,serif" font-size="12.00" fill="#000000">ViewBackward</text>
</g>
<!-- 4686832808&#45;&gt;4686645240 -->
<g id="edge13" class="edge">
<title>4686832808&#45;&gt;4686645240</title>
<path fill="none" stroke="#000000" d="M675.8264,-421.762C676.103,-413.185 676.5063,-400.6836 676.8472,-390.1154"/>
<polygon fill="#000000" stroke="#000000" points="680.3477,-390.1552 677.172,-380.0475 673.3513,-389.9295 680.3477,-390.1552"/>
</g>
<!-- 4686833480 -->
<g id="node15" class="node">
<title>4686833480</title>
<polygon fill="#d3d3d3" stroke="#000000" points="737.3109,-504 613.6812,-504 613.6812,-484 737.3109,-484 737.3109,-504"/>
<text text-anchor="middle" x="675.4961" y="-490.4" font-family="Times,serif" font-size="12.00" fill="#000000">MaxPool2DBackward</text>
</g>
<!-- 4686833480&#45;&gt;4686832808 -->
<g id="edge14" class="edge">
<title>4686833480&#45;&gt;4686832808</title>
<path fill="none" stroke="#000000" d="M675.4961,-483.762C675.4961,-475.185 675.4961,-462.6836 675.4961,-452.1154"/>
<polygon fill="#000000" stroke="#000000" points="678.9962,-452.0475 675.4961,-442.0475 671.9962,-452.0476 678.9962,-452.0475"/>
</g>
<!-- 4686832472 -->
<g id="node16" class="node">
<title>4686832472</title>
<polygon fill="#d3d3d3" stroke="#000000" points="735.2973,-560 615.6949,-560 615.6949,-540 735.2973,-540 735.2973,-560"/>
<text text-anchor="middle" x="675.4961" y="-546.4" font-family="Times,serif" font-size="12.00" fill="#000000">ThresholdBackward1</text>
</g>
<!-- 4686832472&#45;&gt;4686833480 -->
<g id="edge15" class="edge">
<title>4686832472&#45;&gt;4686833480</title>
<path fill="none" stroke="#000000" d="M675.4961,-539.9883C675.4961,-532.9098 675.4961,-523.1714 675.4961,-514.4779"/>
<polygon fill="#000000" stroke="#000000" points="678.9962,-514.3038 675.4961,-504.3039 671.9962,-514.3039 678.9962,-514.3038"/>
</g>
<!-- 4686835048 -->
<g id="node17" class="node">
<title>4686835048</title>
<polygon fill="#d3d3d3" stroke="#000000" points="740.6411,-616 610.3511,-616 610.3511,-596 740.6411,-596 740.6411,-616"/>
<text text-anchor="middle" x="675.4961" y="-602.4" font-family="Times,serif" font-size="12.00" fill="#000000">ThnnConv2DBackward</text>
</g>
<!-- 4686835048&#45;&gt;4686832472 -->
<g id="edge16" class="edge">
<title>4686835048&#45;&gt;4686832472</title>
<path fill="none" stroke="#000000" d="M675.4961,-595.9883C675.4961,-588.9098 675.4961,-579.1714 675.4961,-570.4779"/>
<polygon fill="#000000" stroke="#000000" points="678.9962,-570.3038 675.4961,-560.3039 671.9962,-570.3039 678.9962,-570.3038"/>
</g>
<!-- 4686834152 -->
<g id="node18" class="node">
<title>4686834152</title>
<polygon fill="#d3d3d3" stroke="#000000" points="605.2973,-678 485.6949,-678 485.6949,-658 605.2973,-658 605.2973,-678"/>
<text text-anchor="middle" x="545.4961" y="-664.4" font-family="Times,serif" font-size="12.00" fill="#000000">ThresholdBackward1</text>
</g>
<!-- 4686834152&#45;&gt;4686835048 -->
<g id="edge17" class="edge">
<title>4686834152&#45;&gt;4686835048</title>
<path fill="none" stroke="#000000" d="M566.6722,-657.9006C588.0136,-647.7224 621.1527,-631.9176 645.2565,-620.4219"/>
<polygon fill="#000000" stroke="#000000" points="646.8097,-623.5589 654.3291,-616.095 643.7964,-617.2407 646.8097,-623.5589"/>
</g>
<!-- 4686833704 -->
<g id="node19" class="node">
<title>4686833704</title>
<polygon fill="#d3d3d3" stroke="#000000" points="610.6411,-740 480.3511,-740 480.3511,-720 610.6411,-720 610.6411,-740"/>
<text text-anchor="middle" x="545.4961" y="-726.4" font-family="Times,serif" font-size="12.00" fill="#000000">ThnnConv2DBackward</text>
</g>
<!-- 4686833704&#45;&gt;4686834152 -->
<g id="edge18" class="edge">
<title>4686833704&#45;&gt;4686834152</title>
<path fill="none" stroke="#000000" d="M545.4961,-719.762C545.4961,-711.185 545.4961,-698.6836 545.4961,-688.1154"/>
<polygon fill="#000000" stroke="#000000" points="548.9962,-688.0475 545.4961,-678.0475 541.9962,-688.0476 548.9962,-688.0475"/>
</g>
<!-- 4686834376 -->
<g id="node20" class="node">
<title>4686834376</title>
<polygon fill="#d3d3d3" stroke="#000000" points="478.2973,-802 358.6949,-802 358.6949,-782 478.2973,-782 478.2973,-802"/>
<text text-anchor="middle" x="418.4961" y="-788.4" font-family="Times,serif" font-size="12.00" fill="#000000">ThresholdBackward1</text>
</g>
<!-- 4686834376&#45;&gt;4686833704 -->
<g id="edge19" class="edge">
<title>4686834376&#45;&gt;4686833704</title>
<path fill="none" stroke="#000000" d="M439.1835,-781.9006C459.9401,-771.7675 492.1205,-756.0574 515.6413,-744.5748"/>
<polygon fill="#000000" stroke="#000000" points="517.3667,-747.6273 524.8176,-740.095 514.2957,-741.3369 517.3667,-747.6273"/>
</g>
<!-- 4686834712 -->
<g id="node21" class="node">
<title>4686834712</title>
<polygon fill="#d3d3d3" stroke="#000000" points="483.6411,-864 353.3511,-864 353.3511,-844 483.6411,-844 483.6411,-864"/>
<text text-anchor="middle" x="418.4961" y="-850.4" font-family="Times,serif" font-size="12.00" fill="#000000">ThnnConv2DBackward</text>
</g>
<!-- 4686834712&#45;&gt;4686834376 -->
<g id="edge20" class="edge">
<title>4686834712&#45;&gt;4686834376</title>
<path fill="none" stroke="#000000" d="M418.4961,-843.762C418.4961,-835.185 418.4961,-822.6836 418.4961,-812.1154"/>
<polygon fill="#000000" stroke="#000000" points="421.9962,-812.0475 418.4961,-802.0475 414.9962,-812.0476 421.9962,-812.0475"/>
</g>
<!-- 4686831856 -->
<g id="node22" class="node">
<title>4686831856</title>
<polygon fill="#d3d3d3" stroke="#000000" points="351.3109,-926 227.6812,-926 227.6812,-906 351.3109,-906 351.3109,-926"/>
<text text-anchor="middle" x="289.4961" y="-912.4" font-family="Times,serif" font-size="12.00" fill="#000000">MaxPool2DBackward</text>
</g>
<!-- 4686831856&#45;&gt;4686834712 -->
<g id="edge21" class="edge">
<title>4686831856&#45;&gt;4686834712</title>
<path fill="none" stroke="#000000" d="M310.5093,-905.9006C331.5928,-895.7675 364.2799,-880.0574 388.1711,-868.5748"/>
<polygon fill="#000000" stroke="#000000" points="389.995,-871.5815 397.4919,-864.095 386.9627,-865.2724 389.995,-871.5815"/>
</g>
<!-- 4998085936 -->
<g id="node23" class="node">
<title>4998085936</title>
<polygon fill="#d3d3d3" stroke="#000000" points="349.2973,-988 229.6949,-988 229.6949,-968 349.2973,-968 349.2973,-988"/>
<text text-anchor="middle" x="289.4961" y="-974.4" font-family="Times,serif" font-size="12.00" fill="#000000">ThresholdBackward1</text>
</g>
<!-- 4998085936&#45;&gt;4686831856 -->
<g id="edge22" class="edge">
<title>4998085936&#45;&gt;4686831856</title>
<path fill="none" stroke="#000000" d="M289.4961,-967.762C289.4961,-959.185 289.4961,-946.6836 289.4961,-936.1154"/>
<polygon fill="#000000" stroke="#000000" points="292.9962,-936.0475 289.4961,-926.0475 285.9962,-936.0476 292.9962,-936.0475"/>
</g>
<!-- 4998084312 -->
<g id="node24" class="node">
<title>4998084312</title>
<polygon fill="#d3d3d3" stroke="#000000" points="354.6411,-1044 224.3511,-1044 224.3511,-1024 354.6411,-1024 354.6411,-1044"/>
<text text-anchor="middle" x="289.4961" y="-1030.4" font-family="Times,serif" font-size="12.00" fill="#000000">ThnnConv2DBackward</text>
</g>
<!-- 4998084312&#45;&gt;4998085936 -->
<g id="edge23" class="edge">
<title>4998084312&#45;&gt;4998085936</title>
<path fill="none" stroke="#000000" d="M289.4961,-1023.9883C289.4961,-1016.9098 289.4961,-1007.1714 289.4961,-998.4779"/>
<polygon fill="#000000" stroke="#000000" points="292.9962,-998.3038 289.4961,-988.3039 285.9962,-998.3039 292.9962,-998.3038"/>
</g>
<!-- 4998086608 -->
<g id="node25" class="node">
<title>4998086608</title>
<polygon fill="#d3d3d3" stroke="#000000" points="222.3109,-1106 98.6812,-1106 98.6812,-1086 222.3109,-1086 222.3109,-1106"/>
<text text-anchor="middle" x="160.4961" y="-1092.4" font-family="Times,serif" font-size="12.00" fill="#000000">MaxPool2DBackward</text>
</g>
<!-- 4998086608&#45;&gt;4998084312 -->
<g id="edge24" class="edge">
<title>4998086608&#45;&gt;4998084312</title>
<path fill="none" stroke="#000000" d="M181.5093,-1085.9006C202.5928,-1075.7675 235.2799,-1060.0574 259.1711,-1048.5748"/>
<polygon fill="#000000" stroke="#000000" points="260.995,-1051.5815 268.4919,-1044.095 257.9627,-1045.2724 260.995,-1051.5815"/>
</g>
<!-- 4998085992 -->
<g id="node26" class="node">
<title>4998085992</title>
<polygon fill="#d3d3d3" stroke="#000000" points="220.2973,-1168 100.6949,-1168 100.6949,-1148 220.2973,-1148 220.2973,-1168"/>
<text text-anchor="middle" x="160.4961" y="-1154.4" font-family="Times,serif" font-size="12.00" fill="#000000">ThresholdBackward1</text>
</g>
<!-- 4998085992&#45;&gt;4998086608 -->
<g id="edge25" class="edge">
<title>4998085992&#45;&gt;4998086608</title>
<path fill="none" stroke="#000000" d="M160.4961,-1147.762C160.4961,-1139.185 160.4961,-1126.6836 160.4961,-1116.1154"/>
<polygon fill="#000000" stroke="#000000" points="163.9962,-1116.0475 160.4961,-1106.0475 156.9962,-1116.0476 163.9962,-1116.0475"/>
</g>
<!-- 4998086384 -->
<g id="node27" class="node">
<title>4998086384</title>
<polygon fill="#d3d3d3" stroke="#000000" points="225.6411,-1224 95.3511,-1224 95.3511,-1204 225.6411,-1204 225.6411,-1224"/>
<text text-anchor="middle" x="160.4961" y="-1210.4" font-family="Times,serif" font-size="12.00" fill="#000000">ThnnConv2DBackward</text>
</g>
<!-- 4998086384&#45;&gt;4998085992 -->
<g id="edge26" class="edge">
<title>4998086384&#45;&gt;4998085992</title>
<path fill="none" stroke="#000000" d="M160.4961,-1203.9883C160.4961,-1196.9098 160.4961,-1187.1714 160.4961,-1178.4779"/>
<polygon fill="#000000" stroke="#000000" points="163.9962,-1178.3038 160.4961,-1168.3039 156.9962,-1178.3039 163.9962,-1178.3038"/>
</g>
<!-- 4998085824 -->
<g id="node28" class="node">
<title>4998085824</title>
<polygon fill="#add8e6" stroke="#000000" points="92.9883,-1292 .0039,-1292 .0039,-1260 92.9883,-1260 92.9883,-1292"/>
<text text-anchor="middle" x="46.4961" y="-1278.4" font-family="Times,serif" font-size="12.00" fill="#000000">x</text>
<text text-anchor="middle" x="46.4961" y="-1266.4" font-family="Times,serif" font-size="12.00" fill="#000000"> (1, 3, 227, 227)</text>
</g>
<!-- 4998085824&#45;&gt;4998086384 -->
<g id="edge27" class="edge">
<title>4998085824&#45;&gt;4998086384</title>
<path fill="none" stroke="#000000" d="M76.1507,-1259.8721C93.7404,-1250.3057 115.8834,-1238.263 133.0674,-1228.9174"/>
<polygon fill="#000000" stroke="#000000" points="134.9308,-1231.8881 142.0434,-1224.0357 131.5863,-1225.7387 134.9308,-1231.8881"/>
</g>
<!-- 4998085320 -->
<g id="node29" class="node">
<title>4998085320</title>
<polygon fill="#add8e6" stroke="#000000" points="209.6315,-1292 111.3607,-1292 111.3607,-1260 209.6315,-1260 209.6315,-1292"/>
<text text-anchor="middle" x="160.4961" y="-1278.4" font-family="Times,serif" font-size="12.00" fill="#000000">features.0.weight</text>
<text text-anchor="middle" x="160.4961" y="-1266.4" font-family="Times,serif" font-size="12.00" fill="#000000"> (64, 3, 11, 11)</text>
</g>
<!-- 4998085320&#45;&gt;4998086384 -->
<g id="edge28" class="edge">
<title>4998085320&#45;&gt;4998086384</title>
<path fill="none" stroke="#000000" d="M160.4961,-1259.7102C160.4961,-1252.0144 160.4961,-1242.744 160.4961,-1234.5691"/>
<polygon fill="#000000" stroke="#000000" points="163.9962,-1234.3512 160.4961,-1224.3512 156.9962,-1234.3513 163.9962,-1234.3512"/>
</g>
<!-- 4998031008 -->
<g id="node30" class="node">
<title>4998031008</title>
<polygon fill="#add8e6" stroke="#000000" points="313.3013,-1292 227.6909,-1292 227.6909,-1260 313.3013,-1260 313.3013,-1292"/>
<text text-anchor="middle" x="270.4961" y="-1278.4" font-family="Times,serif" font-size="12.00" fill="#000000">features.0.bias</text>
<text text-anchor="middle" x="270.4961" y="-1266.4" font-family="Times,serif" font-size="12.00" fill="#000000"> (64)</text>
</g>
<!-- 4998031008&#45;&gt;4998086384 -->
<g id="edge29" class="edge">
<title>4998031008&#45;&gt;4998086384</title>
<path fill="none" stroke="#000000" d="M241.882,-1259.8721C225.0666,-1250.3943 203.9387,-1238.4858 187.4242,-1229.1777"/>
<polygon fill="#000000" stroke="#000000" points="188.7314,-1225.8968 178.3013,-1224.0357 185.2943,-1231.9949 188.7314,-1225.8968"/>
</g>
<!-- 4998084144 -->
<g id="node31" class="node">
<title>4998084144</title>
<polygon fill="#add8e6" stroke="#000000" points="338.6315,-1112 240.3607,-1112 240.3607,-1080 338.6315,-1080 338.6315,-1112"/>
<text text-anchor="middle" x="289.4961" y="-1098.4" font-family="Times,serif" font-size="12.00" fill="#000000">features.3.weight</text>
<text text-anchor="middle" x="289.4961" y="-1086.4" font-family="Times,serif" font-size="12.00" fill="#000000"> (192, 64, 5, 5)</text>
</g>
<!-- 4998084144&#45;&gt;4998084312 -->
<g id="edge30" class="edge">
<title>4998084144&#45;&gt;4998084312</title>
<path fill="none" stroke="#000000" d="M289.4961,-1079.7102C289.4961,-1072.0144 289.4961,-1062.744 289.4961,-1054.5691"/>
<polygon fill="#000000" stroke="#000000" points="292.9962,-1054.3512 289.4961,-1044.3512 285.9962,-1054.3513 292.9962,-1054.3512"/>
</g>
<!-- 4998084592 -->
<g id="node32" class="node">
<title>4998084592</title>
<polygon fill="#add8e6" stroke="#000000" points="442.3013,-1112 356.6909,-1112 356.6909,-1080 442.3013,-1080 442.3013,-1112"/>
<text text-anchor="middle" x="399.4961" y="-1098.4" font-family="Times,serif" font-size="12.00" fill="#000000">features.3.bias</text>
<text text-anchor="middle" x="399.4961" y="-1086.4" font-family="Times,serif" font-size="12.00" fill="#000000"> (192)</text>
</g>
<!-- 4998084592&#45;&gt;4998084312 -->
<g id="edge31" class="edge">
<title>4998084592&#45;&gt;4998084312</title>
<path fill="none" stroke="#000000" d="M370.882,-1079.8721C354.0666,-1070.3943 332.9387,-1058.4858 316.4242,-1049.1777"/>
<polygon fill="#000000" stroke="#000000" points="317.7314,-1045.8968 307.3013,-1044.0357 314.2943,-1051.9949 317.7314,-1045.8968"/>
</g>
<!-- 4998085768 -->
<g id="node33" class="node">
<title>4998085768</title>
<polygon fill="#add8e6" stroke="#000000" points="467.6315,-932 369.3607,-932 369.3607,-900 467.6315,-900 467.6315,-932"/>
<text text-anchor="middle" x="418.4961" y="-918.4" font-family="Times,serif" font-size="12.00" fill="#000000">features.6.weight</text>
<text text-anchor="middle" x="418.4961" y="-906.4" font-family="Times,serif" font-size="12.00" fill="#000000"> (384, 192, 3, 3)</text>
</g>
<!-- 4998085768&#45;&gt;4686834712 -->
<g id="edge32" class="edge">
<title>4998085768&#45;&gt;4686834712</title>
<path fill="none" stroke="#000000" d="M418.4961,-899.7102C418.4961,-892.0144 418.4961,-882.744 418.4961,-874.5691"/>
<polygon fill="#000000" stroke="#000000" points="421.9962,-874.3512 418.4961,-864.3512 414.9962,-874.3513 421.9962,-874.3512"/>
</g>
<!-- 4998084480 -->
<g id="node34" class="node">
<title>4998084480</title>
<polygon fill="#add8e6" stroke="#000000" points="571.3013,-932 485.6909,-932 485.6909,-900 571.3013,-900 571.3013,-932"/>
<text text-anchor="middle" x="528.4961" y="-918.4" font-family="Times,serif" font-size="12.00" fill="#000000">features.6.bias</text>
<text text-anchor="middle" x="528.4961" y="-906.4" font-family="Times,serif" font-size="12.00" fill="#000000"> (384)</text>
</g>
<!-- 4998084480&#45;&gt;4686834712 -->
<g id="edge33" class="edge">
<title>4998084480&#45;&gt;4686834712</title>
<path fill="none" stroke="#000000" d="M499.882,-899.8721C483.0666,-890.3943 461.9387,-878.4858 445.4242,-869.1777"/>
<polygon fill="#000000" stroke="#000000" points="446.7314,-865.8968 436.3013,-864.0357 443.2943,-871.9949 446.7314,-865.8968"/>
</g>
<!-- 4686834264 -->
<g id="node35" class="node">
<title>4686834264</title>
<polygon fill="#add8e6" stroke="#000000" points="594.6315,-808 496.3607,-808 496.3607,-776 594.6315,-776 594.6315,-808"/>
<text text-anchor="middle" x="545.4961" y="-794.4" font-family="Times,serif" font-size="12.00" fill="#000000">features.8.weight</text>
<text text-anchor="middle" x="545.4961" y="-782.4" font-family="Times,serif" font-size="12.00" fill="#000000"> (256, 384, 3, 3)</text>
</g>
<!-- 4686834264&#45;&gt;4686833704 -->
<g id="edge34" class="edge">
<title>4686834264&#45;&gt;4686833704</title>
<path fill="none" stroke="#000000" d="M545.4961,-775.7102C545.4961,-768.0144 545.4961,-758.744 545.4961,-750.5691"/>
<polygon fill="#000000" stroke="#000000" points="548.9962,-750.3512 545.4961,-740.3512 541.9962,-750.3513 548.9962,-750.3512"/>
</g>
<!-- 4686834600 -->
<g id="node36" class="node">
<title>4686834600</title>
<polygon fill="#add8e6" stroke="#000000" points="698.3013,-808 612.6909,-808 612.6909,-776 698.3013,-776 698.3013,-808"/>
<text text-anchor="middle" x="655.4961" y="-794.4" font-family="Times,serif" font-size="12.00" fill="#000000">features.8.bias</text>
<text text-anchor="middle" x="655.4961" y="-782.4" font-family="Times,serif" font-size="12.00" fill="#000000"> (256)</text>
</g>
<!-- 4686834600&#45;&gt;4686833704 -->
<g id="edge35" class="edge">
<title>4686834600&#45;&gt;4686833704</title>
<path fill="none" stroke="#000000" d="M626.882,-775.8721C610.0666,-766.3943 588.9387,-754.4858 572.4242,-745.1777"/>
<polygon fill="#000000" stroke="#000000" points="573.7314,-741.8968 563.3013,-740.0357 570.2943,-747.9949 573.7314,-741.8968"/>
</g>
<!-- 4686833984 -->
<g id="node37" class="node">
<title>4686833984</title>
<polygon fill="#add8e6" stroke="#000000" points="727.6315,-684 623.3607,-684 623.3607,-652 727.6315,-652 727.6315,-684"/>
<text text-anchor="middle" x="675.4961" y="-670.4" font-family="Times,serif" font-size="12.00" fill="#000000">features.10.weight</text>
<text text-anchor="middle" x="675.4961" y="-658.4" font-family="Times,serif" font-size="12.00" fill="#000000"> (256, 256, 3, 3)</text>
</g>
<!-- 4686833984&#45;&gt;4686835048 -->
<g id="edge36" class="edge">
<title>4686833984&#45;&gt;4686835048</title>
<path fill="none" stroke="#000000" d="M675.4961,-651.7102C675.4961,-644.0144 675.4961,-634.744 675.4961,-626.5691"/>
<polygon fill="#000000" stroke="#000000" points="678.9962,-626.3512 675.4961,-616.3512 671.9962,-626.3513 678.9962,-626.3512"/>
</g>
<!-- 4686835328 -->
<g id="node38" class="node">
<title>4686835328</title>
<polygon fill="#add8e6" stroke="#000000" points="837.3013,-684 745.6909,-684 745.6909,-652 837.3013,-652 837.3013,-684"/>
<text text-anchor="middle" x="791.4961" y="-670.4" font-family="Times,serif" font-size="12.00" fill="#000000">features.10.bias</text>
<text text-anchor="middle" x="791.4961" y="-658.4" font-family="Times,serif" font-size="12.00" fill="#000000"> (256)</text>
</g>
<!-- 4686835328&#45;&gt;4686835048 -->
<g id="edge37" class="edge">
<title>4686835328&#45;&gt;4686835048</title>
<path fill="none" stroke="#000000" d="M761.3213,-651.8721C743.4229,-642.3057 720.8914,-630.263 703.406,-620.9174"/>
<polygon fill="#000000" stroke="#000000" points="704.7417,-617.6627 694.2725,-616.0357 701.442,-623.8363 704.7417,-617.6627"/>
</g>
<!-- 4686832024 -->
<g id="node39" class="node">
<title>4686832024</title>
<polygon fill="#d3d3d3" stroke="#000000" points="823.4707,-380 751.5215,-380 751.5215,-360 823.4707,-360 823.4707,-380"/>
<text text-anchor="middle" x="787.4961" y="-366.4" font-family="Times,serif" font-size="12.00" fill="#000000">TBackward</text>
</g>
<!-- 4686832024&#45;&gt;5661880728 -->
<g id="edge38" class="edge">
<title>4686832024&#45;&gt;5661880728</title>
<path fill="none" stroke="#000000" d="M767.8303,-359.9883C750.73,-351.2827 725.727,-338.5539 706.3587,-328.6937"/>
<polygon fill="#000000" stroke="#000000" points="707.8621,-325.5316 697.3625,-324.1138 704.6862,-331.7698 707.8621,-325.5316"/>
</g>
<!-- 4686832696 -->
<g id="node40" class="node">
<title>4686832696</title>
<polygon fill="#add8e6" stroke="#000000" points="840.6568,-448 738.3354,-448 738.3354,-416 840.6568,-416 840.6568,-448"/>
<text text-anchor="middle" x="789.4961" y="-434.4" font-family="Times,serif" font-size="12.00" fill="#000000">classifier.1.weight</text>
<text text-anchor="middle" x="789.4961" y="-422.4" font-family="Times,serif" font-size="12.00" fill="#000000"> (4096, 9216)</text>
</g>
<!-- 4686832696&#45;&gt;4686832024 -->
<g id="edge39" class="edge">
<title>4686832696&#45;&gt;4686832024</title>
<path fill="none" stroke="#000000" d="M788.9706,-415.7102C788.7224,-408.0144 788.4233,-398.744 788.1596,-390.5691"/>
<polygon fill="#000000" stroke="#000000" points="791.6507,-390.2331 787.83,-380.3512 784.6543,-390.4589 791.6507,-390.2331"/>
</g>
<!-- 5661882464 -->
<g id="node41" class="node">
<title>5661882464</title>
<polygon fill="#d3d3d3" stroke="#000000" points="830.4707,-200 758.5215,-200 758.5215,-180 830.4707,-180 830.4707,-200"/>
<text text-anchor="middle" x="794.4961" y="-186.4" font-family="Times,serif" font-size="12.00" fill="#000000">TBackward</text>
</g>
<!-- 5661882464&#45;&gt;5661882632 -->
<g id="edge40" class="edge">
<title>5661882464&#45;&gt;5661882632</title>
<path fill="none" stroke="#000000" d="M775.4376,-179.9006C756.4853,-169.8576 727.1951,-154.3362 705.5798,-142.882"/>
<polygon fill="#000000" stroke="#000000" points="707.0213,-139.6848 696.5464,-138.095 703.7436,-145.8701 707.0213,-139.6848"/>
</g>
<!-- 5661882128 -->
<g id="node42" class="node">
<title>5661882128</title>
<polygon fill="#add8e6" stroke="#000000" points="857.6568,-268 755.3354,-268 755.3354,-236 857.6568,-236 857.6568,-268"/>
<text text-anchor="middle" x="806.4961" y="-254.4" font-family="Times,serif" font-size="12.00" fill="#000000">classifier.4.weight</text>
<text text-anchor="middle" x="806.4961" y="-242.4" font-family="Times,serif" font-size="12.00" fill="#000000"> (4096, 4096)</text>
</g>
<!-- 5661882128&#45;&gt;5661882464 -->
<g id="edge41" class="edge">
<title>5661882128&#45;&gt;5661882464</title>
<path fill="none" stroke="#000000" d="M803.3432,-235.7102C801.8368,-227.9269 800.0186,-218.5331 798.4233,-210.2908"/>
<polygon fill="#000000" stroke="#000000" points="801.8361,-209.5039 796.4996,-200.3512 794.9636,-210.8341 801.8361,-209.5039"/>
</g>
<!-- 5661880784 -->
<g id="node43" class="node">
<title>5661880784</title>
<polygon fill="#d3d3d3" stroke="#000000" points="832.4707,-76 760.5215,-76 760.5215,-56 832.4707,-56 832.4707,-76"/>
<text text-anchor="middle" x="796.4961" y="-62.4" font-family="Times,serif" font-size="12.00" fill="#000000">TBackward</text>
</g>
<!-- 5661880784&#45;&gt;5661881176 -->
<g id="edge42" class="edge">
<title>5661880784&#45;&gt;5661881176</title>
<path fill="none" stroke="#000000" d="M775.5788,-55.9883C757.3077,-47.2431 730.5543,-34.4381 709.9148,-24.5594"/>
<polygon fill="#000000" stroke="#000000" points="711.1579,-21.2741 700.6267,-20.1138 708.1357,-27.5882 711.1579,-21.2741"/>
</g>
<!-- 5661880560 -->
<g id="node44" class="node">
<title>5661880560</title>
<polygon fill="#add8e6" stroke="#000000" points="849.6568,-144 747.3354,-144 747.3354,-112 849.6568,-112 849.6568,-144"/>
<text text-anchor="middle" x="798.4961" y="-130.4" font-family="Times,serif" font-size="12.00" fill="#000000">classifier.6.weight</text>
<text text-anchor="middle" x="798.4961" y="-118.4" font-family="Times,serif" font-size="12.00" fill="#000000"> (1000, 4096)</text>
</g>
<!-- 5661880560&#45;&gt;5661880784 -->
<g id="edge43" class="edge">
<title>5661880560&#45;&gt;5661880784</title>
<path fill="none" stroke="#000000" d="M797.9706,-111.7102C797.7224,-104.0144 797.4233,-94.744 797.1596,-86.5691"/>
<polygon fill="#000000" stroke="#000000" points="800.6507,-86.2331 796.83,-76.3512 793.6543,-86.4589 800.6507,-86.2331"/>
</g>
</g>
</svg>